<?xml version="1.0" encoding="utf-8"?>
<!-- Generator: Adobe Illustrator 19.0.0, SVG Export Plug-In . SVG Version: 6.00 Build 0)  -->
<svg version="1.1" id="Layer_1" xmlns="http://www.w3.org/2000/svg" xmlns:xlink="http://www.w3.org/1999/xlink" x="0px" y="0px" width="100%" height="100%"
	 viewBox="0 0 960 560" style="enable-background:new 0 0 960 560;" xml:space="preserve">
<style type="text/css">
	.st0{fill:#C1272D;}
	.st1{fill:#005154;}
</style>
<g id="XMLID_1_">
	<g id="XMLID_285_">
		<path id="XMLID_3_" class="st0" d="M230.9,398.5h-33.6v-7.6l22.3-27.8h-21.7v-7.6h32.9v7.1l-22.6,28.4h22.7V398.5z"/>
		<path id="XMLID_5_" class="st0" d="M265.1,398.5h-8V394h-0.1c-1.9,3.4-5.3,5.3-9.7,5.3c-6.3,0-10.9-3.6-10.9-11.8v-21h8.4v19.8
			c0,4.9,2.9,5.9,5.5,5.9c2.8,0,6.5-1.6,6.5-7.3v-18.4h8.4V398.5z"/>
		<path id="XMLID_7_" class="st0" d="M301.8,398.5h-8.4v-19.4c0-2.3-0.1-6.3-5.5-6.3c-3.7,0-6.6,2.5-6.6,7.4v18.3h-8.4v-43.1h8.4
			v15.3h0.1c1.1-2.6,4.7-5,9.2-5c6.2,0,11.1,3.7,11.1,10.7V398.5z"/>
		<path id="XMLID_9_" class="st0" d="M318.2,398.5h-8.4v-43.1h8.4V398.5z"/>
		<path id="XMLID_11_" class="st0" d="M342.8,398c-4,11.8-5,13.4-12.4,13.4c-1.1,0-2.6-0.1-3.8-0.1v-6.7c0.4,0.1,0.9,0.1,1.6,0.1
			c3.1,0,4.7-0.4,5.5-4.8l-11.8-33.2h9.4l6.8,23.5h0.1l6.5-23.5h8.9L342.8,398z"/>
		<path id="XMLID_13_" class="st1" d="M388.4,398.5h-9v-35.4h-13v-7.6h35v7.6h-13V398.5z"/>
		<path id="XMLID_15_" class="st1" d="M429.9,389.2c-2.2,7.7-8.6,10.2-14,10.2c-9,0-15.9-4.3-15.9-17.5c0-3.8,1.3-16.1,15.3-16.1
			c6.3,0,15,3,15,17.6v1.5h-21.9c0.2,2.4,0.7,7.8,7.5,7.8c2.3,0,4.7-1.2,5.4-3.5H429.9z M421.6,379.4c-0.5-5.2-3.8-6.7-6.5-6.7
			c-4,0-6.1,2.5-6.5,6.7H421.6z"/>
		<path id="XMLID_18_" class="st1" d="M463.3,386.9c-0.3,3.3-2.9,12.5-14.6,12.5c-12,0-14.8-9.2-14.8-15.9
			c0-10.3,4.5-17.7,15.3-17.7c5,0,13.3,2.3,14.1,12.2h-8.5c-0.4-2-1.6-5.2-5.2-5.2h-0.4c-5.3,0-6.7,5.3-6.7,9.2
			c0,3.5,0.1,10.4,6.5,10.4c4.3,0,5.7-4.1,5.7-5.6H463.3z"/>
		<path id="XMLID_20_" class="st1" d="M497.4,398.5H489v-19.4c0-2.3-0.1-6.3-5.5-6.3c-3.7,0-6.6,2.5-6.6,7.4v18.3h-8.4v-43.1h8.4
			v15.3h0.1c1.1-2.6,4.7-5,9.2-5c6.2,0,11.1,3.7,11.1,10.7V398.5z"/>
		<path id="XMLID_22_" class="st1" d="M534.1,398.5h-8.4v-19.4c0-2.3-0.1-6.3-5.5-6.3c-3.7,0-6.6,2.5-6.6,7.4v18.3h-8.4v-31.9h8v4.7
			h0.1c1.1-1.9,3.5-5.5,9.6-5.5c6.2,0,11.1,3.7,11.1,10.7V398.5z"/>
		<path id="XMLID_24_" class="st1" d="M556.3,399.4c-8.6,0-16.3-5.3-16.3-16.8s7.7-16.8,16.3-16.8s16.3,5.3,16.3,16.8
			S564.9,399.4,556.3,399.4z M556.3,372.9c-6.5,0-7.7,5.6-7.7,9.7c0,4.1,1.2,9.7,7.7,9.7c6.5,0,7.7-5.6,7.7-9.7
			C564,378.5,562.8,372.9,556.3,372.9z"/>
		<path id="XMLID_27_" class="st1" d="M587.1,398.5h-8.4v-43.1h8.4V398.5z"/>
		<path id="XMLID_29_" class="st1" d="M609.6,399.4c-8.6,0-16.3-5.3-16.3-16.8s7.7-16.8,16.3-16.8s16.3,5.3,16.3,16.8
			S618.2,399.4,609.6,399.4z M609.6,372.9c-6.5,0-7.7,5.6-7.7,9.7c0,4.1,1.2,9.7,7.7,9.7c6.5,0,7.7-5.6,7.7-9.7
			C617.3,378.5,616.1,372.9,609.6,372.9z"/>
		<path id="XMLID_32_" class="st1" d="M661.1,366.6v30.2c0,5.5-0.4,14.7-16.1,14.7c-6.6,0-13.6-2.8-13.9-9.6h9.1
			c0.4,1.6,1,3.2,5.9,3.2c4.5,0,6.7-2.2,6.7-7.3V394l-0.1-0.1c-1.4,2.5-3.5,4.8-8.5,4.8c-7.7,0-13.7-5.3-13.7-16.5
			c0-11,6.2-16.4,13.3-16.4c5.9,0,8.3,3.5,9.4,5.6h0.1v-4.7H661.1z M645.6,391.6c5.7,0,7.1-4.9,7.1-9.2c0-5.2-2.5-9.4-7.2-9.4
			c-3.1,0-6.6,2.3-6.6,9.7C639,386.8,640.6,391.6,645.6,391.6z"/>
		<path id="XMLID_35_" class="st1" d="M677.1,362.8h-8.4V355h8.4V362.8z M677.1,366.6v31.9h-8.4v-31.9H677.1z"/>
		<path id="XMLID_38_" class="st1" d="M712.6,389.2c-2.2,7.7-8.6,10.2-14,10.2c-9,0-15.9-4.3-15.9-17.5c0-3.8,1.3-16.1,15.3-16.1
			c6.3,0,15,3,15,17.6v1.5H691c0.2,2.4,0.7,7.8,7.5,7.8c2.3,0,4.7-1.2,5.4-3.5H712.6z M704.3,379.4c-0.5-5.2-3.8-6.7-6.5-6.7
			c-4,0-6.1,2.5-6.5,6.7H704.3z"/>
		<path id="XMLID_41_" class="st1" d="M736.6,376.3c-0.4-2-1.1-4.2-5.6-4.2s-5.2,1.7-5.2,3.1c0,5,20,1.4,20,13.1c0,9.3-9,11-14,11
			c-7.3,0-15.1-2.5-15.4-11h8.6c0,2.7,1.7,4.7,7,4.7c4.3,0,5.3-2.1,5.3-3.3c0-5.3-19.8-1.3-19.8-13.3c0-4.7,2.9-10.7,12.9-10.7
			c6.2,0,13.7,1.6,14.3,10.6H736.6z"/>
	</g>
	<g id="XMLID_125_">
		<path id="XMLID_284_" class="st1" d="M549.9,217c-0.1,0.4-0.2,0.8-0.2,1.1c-0.7,2.8-1.3,5.7-2.2,8.4c-1.5,4.5-3.4,8.9-5.7,13.1
			c-3.1,5.7-6.8,10.9-11.1,15.7c-6.6,7.2-14.2,13.2-22.9,17.6c-0.7,0.3-0.7,0.7-0.4,1.3c0.4,0.8,0.9,1.7,1.3,2.5c1.5,3,3,6,4.6,9.1
			c0.1,0.2,0.5,0.3,0.7,0.2c1.9-1,3.8-2,5.6-3.1c4.7-2.8,9.1-6,13.2-9.5c6.2-5.3,11.7-11.4,16.3-18.1c3.3-4.8,6.2-9.8,8.5-15.1
			c1.5-3.6,3-7.3,4.2-11c1.4-4.5,2.4-9,3.1-13.7c0.4-2.5,0.6-4.9,0.8-7.4C560.6,211.1,555.4,214.1,549.9,217z"/>
		<path id="XMLID_282_" class="st1" d="M476.2,304.6c-0.1-1.8-0.3-3.4-0.4-5.1c1.6-0.2,3.1-0.3,4.6-0.5c3.2-0.5,6.4-0.9,9.6-1.5
			c5.5-0.9,10.7-2.6,15.9-4.6c8.9-3.4,17.2-8.1,24.7-14c5.8-4.5,11-9.5,15.6-15.1c3.6-4.4,6.8-9,9.7-13.9c2.4-4.1,4.5-8.4,6.2-12.8
			c1.2-3.1,2.2-6.2,3.1-9.4c0.9-3.3,1.7-6.6,2.3-10c0.8-4.2,1.3-8.5,1.3-12.9c0-0.8,0.2-1.1,1.1-1.1c1.4,0.1,2.7,0.1,4.2,0.2
			c-1.2,26.8-10.7,49.9-29.4,69.1C526.1,292.5,503,302.7,476.2,304.6z"/>
		<g id="XMLID_279_">
			<path id="XMLID_281_" class="st1" d="M560.7,145.4c1.7,2.7,3.2,5.4,4.5,8.1c0.6,0,1.1,0,1.6,0c5,0,9.6,0.5,13.8,1.4
				c0.4,0.1,0.8,0.2,1.1,0.3c-0.3-0.8-0.6-1.6-1-2.4c-2.2-5-4.8-9.9-7.7-14.6c-3.8-6.2-8.1-12.1-13-17.5
				c-9.3-10.3-20-18.8-32.2-25.4c-1.1-0.6-2.2-1.2-3.3-1.7c-2.2,4.3-4.3,8.5-6.5,12.9C535.9,115.5,550.2,128.5,560.7,145.4z"/>
			<path id="XMLID_280_" class="st1" d="M590.2,188.7c-0.6,0.7-1.3,1.4-1.9,2c-3.8,3.8-7.9,6.6-11.8,9.5c0,0.1,0-0.2,0-0.2
				c0.4,0,0.7,0,1,0c4.1,0,7.8,0.5,11.9,0.5c0.3,0,0.6,0.5,0.6,0.5c0-2.1,0-4.3,0-6.4c0-1.4,0.1-2.8,0-4.1
				C589.9,189.9,590.2,189.3,590.2,188.7z"/>
		</g>
		<path id="XMLID_262_" class="st1" d="M522.8,124.5c12,8.2,21.3,18.3,28.1,30.1c1.8-0.2,3.7-0.4,5.5-0.6c-1.1-2.1-2.3-4.1-3.6-6
			c-4.3-6.7-9.4-12.7-15.2-18.2c-5.8-5.4-12.1-10.1-19-14c-4.6-2.6-9.3-4.8-14.2-6.6c-4.2-1.6-8.5-2.7-12.8-3.8c-2-0.5-4-0.8-6-1.1
			c-4.1-0.5-8.1-1-12.2-1.2c-7.1-0.3-14.1,0.2-21,1.7c-4.2,0.9-8.4,1.8-12.5,3.2c-4.1,1.4-8.2,3.1-12.1,4.9
			c-5.6,2.6-10.9,5.9-15.8,9.6c-7.6,5.7-14.2,12.3-19.9,19.9c-0.9,1.2-1.8,2.5-2.7,3.7c1.4,1,2.8,1.9,4.2,2.9
			c14.7-20.9,34.4-34.4,59.6-39.1C478.2,105.2,501.7,110,522.8,124.5z"/>
		<g id="XMLID_259_">
			<path id="XMLID_261_" class="st1" d="M551.8,174.1c0.9,2.7,1.6,5.5,2.2,8.3c0.1-0.2,0.3-0.3,0.4-0.5c0.9-1.3,1.7-2.6,2.3-3.9
				c0.5-1.2,0.8-2.4-1.1-4.5c-1-1.1-2.4-1.8-4.8-2.3C551.2,172.2,551.5,173.2,551.8,174.1z"/>
			<path id="XMLID_260_" class="st1" d="M482.7,116.3c3,0.4,5.9,0.9,8.8,1.7c3.9,1.1,7.7,2.3,11.5,3.7c5.4,2.1,10.5,4.9,15.3,8.2
				c6.6,4.4,12.4,9.6,17.6,15.7c2.7,3.2,5.1,6.5,7.3,10.1c0.8-0.1,1.5-0.2,2.3-0.3c1.1-0.1,2.2-0.3,3.3-0.4
				c-4.7-7.9-10.2-15.2-17.6-21.7c-16.9-15.1-38.2-22.5-59.2-23c0,1.8,0,3.4,0,5.1c0,0,0.2,0.1,0.5,0.1
				C476,115.7,479.1,115.9,482.7,116.3z"/>
		</g>
		<g id="XMLID_255_">
			<path id="XMLID_258_" class="st1" d="M390.1,217.1c-3.7,3.4-6,6.2-7.4,9.2c-0.8,1.7-0.8,2.7-0.8,3.3c0.1,0.6,0.1,1,1.7,1.7
				c2.1,0.8,4.5,1.2,7.9,1.3c0.7,0,1.4,0,2.1,0c0.4,0,0.9,0,1.3,0C392.8,227.5,391.2,222.3,390.1,217.1z"/>
			<path id="XMLID_257_" class="st1" d="M384.2,203c1.5-0.9,2.9-1.9,4.4-2.8c0.2-11.3,2.9-22.9,8-34.7c-0.1-0.1-0.4-0.3-0.7-0.4
				c-3.3-1.6-6.6-3.1-9.8-4.8c-0.6-0.3-0.9-0.2-1.2,0.4c-0.9,2-1.8,4-2.6,6.1c-1.2,3.3-2.2,6.6-3.2,9.9c-0.7,2.4-1.3,4.9-1.7,7.3
				c-0.6,3.8-1,7.6-1.3,11.4c-0.4,4.3-0.3,8.6,0.1,12.9C378.7,206.5,381.5,204.7,384.2,203z"/>
			<path id="XMLID_256_" class="st1" d="M494.7,281.8c-0.2-0.8-0.5-1.6-0.8-2.4c-16.9,4.7-33.6,4.6-50.1-1.1
				c-14-4.8-25.9-12.7-35.2-23.7c-4.8,1.2-9.5,2.2-14,3.1c1.2,1.6,2.4,3.1,3.7,4.6c6.1,7.1,13.1,13.2,20.9,18.3
				c5.3,3.4,10.9,6.3,16.9,8.6c4.1,1.6,8.3,2.9,12.5,3.9c4.2,1,8.5,1.7,12.8,2.1c8,0.7,16.1,0.6,24-0.8c3.7-0.6,7.4-1.6,11.1-2.4
				c0.7-0.2,1-0.5,0.7-1.2C496.5,287.8,495.6,284.8,494.7,281.8z"/>
		</g>
		<g id="XMLID_252_">
			<path id="XMLID_254_" class="st1" d="M368.7,213.4c-0.1-0.9-0.2-1.8-0.3-2.7c-0.1-0.5-0.2-0.7-0.7-0.7c-1.1,0.1-2.2,0.2-3.3,0.3
				c-1.9,0.2-3.7,0.4-5.7,0.5c0.2,3.1,0.6,6.4,1.2,9.9C362.6,218.3,365.5,215.8,368.7,213.4z"/>
			<path id="XMLID_253_" class="st1" d="M469.9,303.5c-3.9-0.2-7.7-0.2-11.5-0.7c-4.5-0.6-8.9-1.4-13.3-2.4
				c-4.6-1.1-9.2-2.6-13.6-4.5c-5.5-2.3-10.7-5-15.7-8.1c-8.4-5.3-15.9-11.7-22.4-19.1c-2.7-3-5.1-6.2-7.4-9.4
				c-4.1,0.6-7.7,0.9-11.1,1c5.4,8.7,12.4,17.3,21.5,25.2c21.3,18.5,46.2,27.6,74.4,27.9c0-0.4,0-0.7,0-0.9c0-2.7,0-5.4,0-8
				C470.8,303.7,470.6,303.5,469.9,303.5z"/>
		</g>
		<path id="XMLID_251_" class="st1" d="M499.7,318.4c-0.3-1.2-0.7-2.4-1-3.7c-1.5,0.3-2.8,0.7-4.2,1c-3.3,0.6-6.7,1.2-10,1.6
			c-3.8,0.4-7.6,0.8-11.4,0.9c-6.4,0.2-12.8-0.2-19.1-1.2c-3.3-0.5-6.7-1.1-10-1.8c-2.8-0.6-5.6-1.4-8.3-2.3
			c-4.2-1.4-8.4-2.9-12.4-4.6c-4.8-2-9.3-4.5-13.7-7.2c-5.8-3.6-11.3-7.6-16.4-12.1c-5.7-5-10.9-10.6-15.5-16.6
			c-2.9-3.8-5.6-7.7-8-11.8c0,0,0,0-0.1,0c-2.4,0-5-0.2-7.8-0.6c1.4,2.6,2.9,5.2,4.6,7.6c2.8,4,5.6,8.1,8.7,11.9
			c3.1,3.8,6.6,7.3,10,10.8c3.4,3.5,7.3,6.6,11.2,9.6c3.9,3,8.1,5.7,12.3,8.2c4.3,2.5,8.6,4.8,13.2,6.6c4.6,1.8,9.2,3.6,13.9,5
			c4.7,1.4,9.6,2.3,14.4,3.2c3.6,0.6,7.2,1.3,10.9,1.3h19.1c2,0,3.9-0.3,5.9-0.5c2.6-0.3,5.1-0.6,7.7-1.1c2.1-0.4,4.1-0.9,6.2-1.3
			c0.7-0.1,0.8-0.4,0.6-1C500,319.6,499.9,319,499.7,318.4z"/>
		<g id="XMLID_248_">
			<path id="XMLID_250_" class="st0" d="M538.2,163.3c1.3-0.2,2.6-0.5,3.9-0.7c5.3-0.7,10.5-1.5,15.8-2c7.1-0.6,14.2-0.7,21.3,0.8
				c2.5,0.6,5,1.4,7.2,2.8c4.7,3.1,6,7.6,3.6,12.7c-1.6,3.4-4,6.2-6.6,8.8c-5.8,5.9-12.5,10.6-19.5,15.1
				c-14.5,9.2-29.9,16.7-45.7,23.3c-15.1,6.4-30.6,11.8-46.3,16.5c-11.2,3.3-22.6,6.3-34.1,8.4c-7.1,1.3-14.3,2.2-21.5,3.3
				c-0.4,0.1-0.8,0.1-1.3,0c1.5-0.3,3.1-0.7,4.6-1c16.1-3.4,31.9-7.9,47.5-13.3c18.8-6.5,37.1-14.2,54.6-23.7
				c9.8-5.3,19.2-11,27.8-18.1c3.8-3.1,7.4-6.4,10.3-10.5c1.1-1.6,2.1-3.3,2.9-5.1c2-4.4,0.9-8.4-2.3-11.8c-2.5-2.7-5.7-3.8-9.2-4.6
				c-4.3-0.9-8.6-1-12.9-0.9c-0.1,0-0.2,0-0.3,0C538.3,163.5,538.2,163.4,538.2,163.3z"/>
			<path id="XMLID_249_" class="st0" d="M393.5,205.2c-2.6,2.2-5.2,4.3-7.7,6.6c-3.7,3.4-7,7-9.2,11.6c-1,2.2-1.6,4.5-1.4,7
				c0.4,3.7,2.6,5.9,5.9,7.2c3.3,1.3,6.7,1.7,10.2,1.8c6.8,0.2,13.5-0.6,20.2-1.8c19.3-3.5,37.9-9.7,56-17.1
				c15.6-6.4,30.6-13.7,45.1-22.4c4.2-2.6,8.4-5.2,12.5-8c3.4-2.3,6.7-4.7,9.9-7.3c3.1-2.5,6-5.4,9-8.1c0.2-0.2,0.4-0.4,0.8-0.5
				c-0.8,1-1.5,2.1-2.3,3.1c-1.8,2-3.7,4.1-5.6,6c-4.7,4.5-9.8,8.4-15.1,12.2c-18.3,13-38.1,23.2-58.5,32.3
				c-15,6.7-30.3,12.5-46.1,17.2c-9.1,2.8-18.4,5.1-27.7,6.8c-6.6,1.2-13.2,2-19.9,1.9c-3.8-0.1-7.6-0.4-11.2-1.8
				c-2.7-1.1-4.9-2.8-5.5-5.9c-0.5-2.2,0-4.2,0.8-6.2c1.4-3.7,3.8-6.7,6.4-9.6c4.9-5.4,10.5-10,16.5-14.2
				c5.3-3.7,10.8-7.1,16.3-10.6C393,205.4,393.2,205.3,393.5,205.2C393.5,205.2,393.5,205.2,393.5,205.2z"/>
		</g>
		<path id="XMLID_235_" class="st0" d="M418,211.4c2.7,0,5.3,0.1,8,0c6.5-0.4,13-0.9,19.5-1.6c7.6-0.9,15.2-2.4,22.6-4.2
			c25.8-6.3,49.4-17.2,70.8-32.9c0.1-0.1,0.1-0.1,0.2-0.2c-11.3-26.5-37.6-45.1-68.2-45.1c-40.9,0-74.1,33.2-74.1,74.1
			c0,3,0.2,6,0.6,8.9C404.2,211.2,411.1,211.5,418,211.4z"/>
		<path id="XMLID_233_" class="st0" d="M422.3,257.5c13,11.3,30,18.2,48.6,18.2c32.6,0,60.2-21,70.2-50.2
			C505.5,251.2,465.9,261.7,422.3,257.5z"/>
		<g id="XMLID_227_">
			<path id="XMLID_230_" class="st1" d="M583,227.4c-7.8,32.8-29.5,60.4-58.9,75.9c1.2,1,2,2.4,2.2,4c30.5-16.1,53.1-44.9,61.2-79
				c-0.3,0.1-0.6,0.1-0.9,0.1C585.3,228.5,584,228.1,583,227.4z"/>
			<circle id="XMLID_229_" class="st1" cx="586.3" cy="222.4" r="6.1"/>
			<circle id="XMLID_228_" class="st1" cx="520.3" cy="308" r="6.1"/>
		</g>
		<g id="XMLID_126_">
			<path id="XMLID_225_" class="st1" d="M363.5,202.1l0.1-2.6l-9.6-0.4l0.6,2.5l-2-0.1l-1.3-4.8l12.4,0.5l0.1-2.5l1.9,0.1l-0.3,7.3
				L363.5,202.1z"/>
			<path id="XMLID_189_" class="st1" d="M365.3,183.4l0.5-2.5l-9.4-2l0.2,2.6l-2-0.4l-0.5-4.9l12.2,2.6l0.5-2.4l1.9,0.4l-1.6,7.2
				L365.3,183.4z"/>
			<path id="XMLID_186_" class="st1" d="M364.3,162.4c-7.6-3.3-2.8-14.3,4.8-11l2.3,1c7.6,3.3,2.8,14.3-4.8,11L364.3,162.4z
				 M367.5,161.3c5,2.2,8-4.6,3-6.8l-2.3-1c-4.9-2.2-7.9,4.6-3,6.8L367.5,161.3z"/>
			<path id="XMLID_182_" class="st1" d="M376,139.6c-6.7-4.9,0.5-14.6,7.1-9.6l2,1.5c6.7,4.9-0.4,14.6-7.1,9.6L376,139.6z
				 M379.3,139.2c4.4,3.2,8.8-2.7,4.4-6l-2-1.5c-4.3-3.2-8.8,2.7-4.4,6L379.3,139.2z"/>
			<path id="XMLID_179_" class="st1" d="M392.4,119.9c-5.4-6.3,3.7-14.1,9.1-7.8l1.6,1.9c5.4,6.3-3.6,14.1-9.1,7.8L392.4,119.9z
				 M395.8,120.3c3.6,4.1,9.2-0.7,5.6-4.8l-1.6-1.9c-3.5-4.1-9.2,0.7-5.6,4.8L395.8,120.3z"/>
			<path id="XMLID_177_" class="st1" d="M415.8,110.2l2.2-1.3l-4.7-8.4l-1.8,1.8l-1-1.7l3.4-3.6l6.1,10.8l2.2-1.2l0.9,1.7l-6.4,3.6
				L415.8,110.2z"/>
			<path id="XMLID_174_" class="st1" d="M430.7,95.5c-2.6-7.9,8.8-11.6,11.4-3.7l0.8,2.4c2.6,7.9-8.8,11.6-11.4,3.7L430.7,95.5z
				 M433.7,97.2c1.7,5.2,8.7,2.9,7-2.3l-0.8-2.4c-1.7-5.1-8.7-2.9-7,2.3L433.7,97.2z"/>
			<path id="XMLID_171_" class="st1" d="M455.5,89c-0.8-8.3,11.2-9.4,11.9-1.1l0.2,2.5c0.8,8.3-11.2,9.4-11.9,1.1L455.5,89z
				 M458.1,91.3c0.5,5.4,7.9,4.7,7.4-0.7l-0.2-2.5c-0.5-5.3-7.9-4.7-7.4,0.7L458.1,91.3z"/>
			<path id="XMLID_169_" class="st1" d="M480.2,94.7l2.6,0.3l1-9.6l-2.5,0.4l0.2-2l4.9-1l-1.3,12.4l2.5,0.3l-0.2,1.9l-7.3-0.8
				L480.2,94.7z"/>
			<path id="XMLID_165_" class="st1" d="M500.9,91.3c2.5-7.9,13.9-4.4,11.4,3.6l-0.7,2.4c-2.5,7.9-13.9,4.4-11.4-3.6L500.9,91.3z
				 M502.3,94.4c-1.6,5.2,5.5,7.4,7.1,2.2l0.7-2.4c1.6-5.1-5.5-7.4-7.1-2.2L502.3,94.4z"/>
		</g>
	</g>
</g>
</svg>
