<?xml version="1.0" encoding="UTF-8" standalone="no"?>
<!-- Generator: Adobe Illustrator 19.0.0, SVG Export Plug-In . SVG Version: 6.00 Build 0)  -->

<svg
   xmlns:dc="http://purl.org/dc/elements/1.1/"
   xmlns:cc="http://creativecommons.org/ns#"
   xmlns:rdf="http://www.w3.org/1999/02/22-rdf-syntax-ns#"
   xmlns:svg="http://www.w3.org/2000/svg"
   xmlns="http://www.w3.org/2000/svg"
   xmlns:sodipodi="http://sodipodi.sourceforge.net/DTD/sodipodi-0.dtd"
   xmlns:inkscape="http://www.inkscape.org/namespaces/inkscape"
   version="1.1"
   id="Layer_1"
   x="0px"
   y="0px"
   viewBox="0 0 832.5 242.00226"
   xml:space="preserve"
   sodipodi:docname="ZuhlyTechnologies_text_only.svg"
   inkscape:version="0.92.3 (2405546, 2018-03-11)"
   width="832.5"
   height="242.00226"><metadata
   id="metadata66"><rdf:RDF><cc:Work
       rdf:about=""><dc:format>image/svg+xml</dc:format><dc:type
         rdf:resource="http://purl.org/dc/dcmitype/StillImage" /><dc:title></dc:title></cc:Work></rdf:RDF></metadata><defs
   id="defs64" /><sodipodi:namedview
   pagecolor="#ffffff"
   bordercolor="#666666"
   borderopacity="1"
   objecttolerance="10"
   gridtolerance="10"
   guidetolerance="10"
   inkscape:pageopacity="0"
   inkscape:pageshadow="2"
   inkscape:window-width="1285"
   inkscape:window-height="831"
   id="namedview62"
   showgrid="false"
   inkscape:zoom="0.47140452"
   inkscape:cx="401.39848"
   inkscape:cy="98.99899"
   inkscape:window-x="0"
   inkscape:window-y="28"
   inkscape:window-maximized="0"
   inkscape:current-layer="Layer_1"
   units="mm"
   showborder="true"
   fit-margin-top="0"
   fit-margin-left="0"
   fit-margin-right="0"
   fit-margin-bottom="0" />
<style
   type="text/css"
   id="style2">
	.st0{fill:#C1272D;}
	.st1{fill:#005154;}
</style>
<g
   id="XMLID_1_"
   transform="translate(86.7,-256.19775)">
	<g
   id="XMLID_285_">
		<path
   id="XMLID_3_"
   class="st0"
   d="m 230.9,398.5 h -33.6 v -7.6 l 22.3,-27.8 h -21.7 v -7.6 h 32.9 v 7.1 L 208.2,391 h 22.7 z"
   inkscape:connector-curvature="0"
   style="fill:#c1272d" />
		<path
   id="XMLID_5_"
   class="st0"
   d="m 265.1,398.5 h -8 V 394 H 257 c -1.9,3.4 -5.3,5.3 -9.7,5.3 -6.3,0 -10.9,-3.6 -10.9,-11.8 v -21 h 8.4 v 19.8 c 0,4.9 2.9,5.9 5.5,5.9 2.8,0 6.5,-1.6 6.5,-7.3 v -18.4 h 8.4 v 32 z"
   inkscape:connector-curvature="0"
   style="fill:#c1272d" />
		<path
   id="XMLID_7_"
   class="st0"
   d="m 301.8,398.5 h -8.4 v -19.4 c 0,-2.3 -0.1,-6.3 -5.5,-6.3 -3.7,0 -6.6,2.5 -6.6,7.4 v 18.3 h -8.4 v -43.1 h 8.4 v 15.3 h 0.1 c 1.1,-2.6 4.7,-5 9.2,-5 6.2,0 11.1,3.7 11.1,10.7 v 22.1 z"
   inkscape:connector-curvature="0"
   style="fill:#c1272d" />
		<path
   id="XMLID_9_"
   class="st0"
   d="m 318.2,398.5 h -8.4 v -43.1 h 8.4 z"
   inkscape:connector-curvature="0"
   style="fill:#c1272d" />
		<path
   id="XMLID_11_"
   class="st0"
   d="m 342.8,398 c -4,11.8 -5,13.4 -12.4,13.4 -1.1,0 -2.6,-0.1 -3.8,-0.1 v -6.7 c 0.4,0.1 0.9,0.1 1.6,0.1 3.1,0 4.7,-0.4 5.5,-4.8 l -11.8,-33.2 h 9.4 l 6.8,23.5 h 0.1 l 6.5,-23.5 h 8.9 z"
   inkscape:connector-curvature="0"
   style="fill:#c1272d" />
		<path
   id="XMLID_13_"
   class="st1"
   d="m 388.4,398.5 h -9 v -35.4 h -13 v -7.6 h 35 v 7.6 h -13 z"
   inkscape:connector-curvature="0"
   style="fill:#005154" />
		<path
   id="XMLID_15_"
   class="st1"
   d="m 429.9,389.2 c -2.2,7.7 -8.6,10.2 -14,10.2 -9,0 -15.9,-4.3 -15.9,-17.5 0,-3.8 1.3,-16.1 15.3,-16.1 6.3,0 15,3 15,17.6 v 1.5 h -21.9 c 0.2,2.4 0.7,7.8 7.5,7.8 2.3,0 4.7,-1.2 5.4,-3.5 z m -8.3,-9.8 c -0.5,-5.2 -3.8,-6.7 -6.5,-6.7 -4,0 -6.1,2.5 -6.5,6.7 z"
   inkscape:connector-curvature="0"
   style="fill:#005154" />
		<path
   id="XMLID_18_"
   class="st1"
   d="m 463.3,386.9 c -0.3,3.3 -2.9,12.5 -14.6,12.5 -12,0 -14.8,-9.2 -14.8,-15.9 0,-10.3 4.5,-17.7 15.3,-17.7 5,0 13.3,2.3 14.1,12.2 h -8.5 c -0.4,-2 -1.6,-5.2 -5.2,-5.2 h -0.4 c -5.3,0 -6.7,5.3 -6.7,9.2 0,3.5 0.1,10.4 6.5,10.4 4.3,0 5.7,-4.1 5.7,-5.6 h 8.6 z"
   inkscape:connector-curvature="0"
   style="fill:#005154" />
		<path
   id="XMLID_20_"
   class="st1"
   d="M 497.4,398.5 H 489 v -19.4 c 0,-2.3 -0.1,-6.3 -5.5,-6.3 -3.7,0 -6.6,2.5 -6.6,7.4 v 18.3 h -8.4 v -43.1 h 8.4 v 15.3 h 0.1 c 1.1,-2.6 4.7,-5 9.2,-5 6.2,0 11.1,3.7 11.1,10.7 v 22.1 z"
   inkscape:connector-curvature="0"
   style="fill:#005154" />
		<path
   id="XMLID_22_"
   class="st1"
   d="m 534.1,398.5 h -8.4 v -19.4 c 0,-2.3 -0.1,-6.3 -5.5,-6.3 -3.7,0 -6.6,2.5 -6.6,7.4 v 18.3 h -8.4 v -31.9 h 8 v 4.7 h 0.1 c 1.1,-1.9 3.5,-5.5 9.6,-5.5 6.2,0 11.1,3.7 11.1,10.7 v 22 z"
   inkscape:connector-curvature="0"
   style="fill:#005154" />
		<path
   id="XMLID_24_"
   class="st1"
   d="m 556.3,399.4 c -8.6,0 -16.3,-5.3 -16.3,-16.8 0,-11.5 7.7,-16.8 16.3,-16.8 8.6,0 16.3,5.3 16.3,16.8 0,11.5 -7.7,16.8 -16.3,16.8 z m 0,-26.5 c -6.5,0 -7.7,5.6 -7.7,9.7 0,4.1 1.2,9.7 7.7,9.7 6.5,0 7.7,-5.6 7.7,-9.7 0,-4.1 -1.2,-9.7 -7.7,-9.7 z"
   inkscape:connector-curvature="0"
   style="fill:#005154" />
		<path
   id="XMLID_27_"
   class="st1"
   d="m 587.1,398.5 h -8.4 v -43.1 h 8.4 z"
   inkscape:connector-curvature="0"
   style="fill:#005154" />
		<path
   id="XMLID_29_"
   class="st1"
   d="m 609.6,399.4 c -8.6,0 -16.3,-5.3 -16.3,-16.8 0,-11.5 7.7,-16.8 16.3,-16.8 8.6,0 16.3,5.3 16.3,16.8 0,11.5 -7.7,16.8 -16.3,16.8 z m 0,-26.5 c -6.5,0 -7.7,5.6 -7.7,9.7 0,4.1 1.2,9.7 7.7,9.7 6.5,0 7.7,-5.6 7.7,-9.7 0,-4.1 -1.2,-9.7 -7.7,-9.7 z"
   inkscape:connector-curvature="0"
   style="fill:#005154" />
		<path
   id="XMLID_32_"
   class="st1"
   d="m 661.1,366.6 v 30.2 c 0,5.5 -0.4,14.7 -16.1,14.7 -6.6,0 -13.6,-2.8 -13.9,-9.6 h 9.1 c 0.4,1.6 1,3.2 5.9,3.2 4.5,0 6.7,-2.2 6.7,-7.3 V 394 l -0.1,-0.1 c -1.4,2.5 -3.5,4.8 -8.5,4.8 -7.7,0 -13.7,-5.3 -13.7,-16.5 0,-11 6.2,-16.4 13.3,-16.4 5.9,0 8.3,3.5 9.4,5.6 h 0.1 v -4.7 h 7.8 z m -15.5,25 c 5.7,0 7.1,-4.9 7.1,-9.2 0,-5.2 -2.5,-9.4 -7.2,-9.4 -3.1,0 -6.6,2.3 -6.6,9.7 0.1,4.1 1.7,8.9 6.7,8.9 z"
   inkscape:connector-curvature="0"
   style="fill:#005154" />
		<path
   id="XMLID_35_"
   class="st1"
   d="m 677.1,362.8 h -8.4 V 355 h 8.4 z m 0,3.8 v 31.9 h -8.4 v -31.9 z"
   inkscape:connector-curvature="0"
   style="fill:#005154" />
		<path
   id="XMLID_38_"
   class="st1"
   d="m 712.6,389.2 c -2.2,7.7 -8.6,10.2 -14,10.2 -9,0 -15.9,-4.3 -15.9,-17.5 0,-3.8 1.3,-16.1 15.3,-16.1 6.3,0 15,3 15,17.6 v 1.5 h -22 c 0.2,2.4 0.7,7.8 7.5,7.8 2.3,0 4.7,-1.2 5.4,-3.5 z m -8.3,-9.8 c -0.5,-5.2 -3.8,-6.7 -6.5,-6.7 -4,0 -6.1,2.5 -6.5,6.7 z"
   inkscape:connector-curvature="0"
   style="fill:#005154" />
		<path
   id="XMLID_41_"
   class="st1"
   d="m 736.6,376.3 c -0.4,-2 -1.1,-4.2 -5.6,-4.2 -4.5,0 -5.2,1.7 -5.2,3.1 0,5 20,1.4 20,13.1 0,9.3 -9,11 -14,11 -7.3,0 -15.1,-2.5 -15.4,-11 h 8.6 c 0,2.7 1.7,4.7 7,4.7 4.3,0 5.3,-2.1 5.3,-3.3 0,-5.3 -19.8,-1.3 -19.8,-13.3 0,-4.7 2.9,-10.7 12.9,-10.7 6.2,0 13.7,1.6 14.3,10.6 z"
   inkscape:connector-curvature="0"
   style="fill:#005154" />
	</g>
	<g
   id="XMLID_125_"
   transform="translate(-438,174)">
		<path
   id="XMLID_284_"
   class="st1"
   d="m 549.9,217 c -0.1,0.4 -0.2,0.8 -0.2,1.1 -0.7,2.8 -1.3,5.7 -2.2,8.4 -1.5,4.5 -3.4,8.9 -5.7,13.1 -3.1,5.7 -6.8,10.9 -11.1,15.7 -6.6,7.2 -14.2,13.2 -22.9,17.6 -0.7,0.3 -0.7,0.7 -0.4,1.3 0.4,0.8 0.9,1.7 1.3,2.5 1.5,3 3,6 4.6,9.1 0.1,0.2 0.5,0.3 0.7,0.2 1.9,-1 3.8,-2 5.6,-3.1 4.7,-2.8 9.1,-6 13.2,-9.5 6.2,-5.3 11.7,-11.4 16.3,-18.1 3.3,-4.8 6.2,-9.8 8.5,-15.1 1.5,-3.6 3,-7.3 4.2,-11 1.4,-4.5 2.4,-9 3.1,-13.7 0.4,-2.5 0.6,-4.9 0.8,-7.4 -5.1,3 -10.3,6 -15.8,8.9 z"
   inkscape:connector-curvature="0"
   style="fill:#005154" />
		<path
   id="XMLID_282_"
   class="st1"
   d="m 476.2,304.6 c -0.1,-1.8 -0.3,-3.4 -0.4,-5.1 1.6,-0.2 3.1,-0.3 4.6,-0.5 3.2,-0.5 6.4,-0.9 9.6,-1.5 5.5,-0.9 10.7,-2.6 15.9,-4.6 8.9,-3.4 17.2,-8.1 24.7,-14 5.8,-4.5 11,-9.5 15.6,-15.1 3.6,-4.4 6.8,-9 9.7,-13.9 2.4,-4.1 4.5,-8.4 6.2,-12.8 1.2,-3.1 2.2,-6.2 3.1,-9.4 0.9,-3.3 1.7,-6.6 2.3,-10 0.8,-4.2 1.3,-8.5 1.3,-12.9 0,-0.8 0.2,-1.1 1.1,-1.1 1.4,0.1 2.7,0.1 4.2,0.2 -1.2,26.8 -10.7,49.9 -29.4,69.1 -18.6,19.5 -41.7,29.7 -68.5,31.6 z"
   inkscape:connector-curvature="0"
   style="fill:#005154" />
		<g
   id="XMLID_279_">
			<path
   id="XMLID_281_"
   class="st1"
   d="m 560.7,145.4 c 1.7,2.7 3.2,5.4 4.5,8.1 0.6,0 1.1,0 1.6,0 5,0 9.6,0.5 13.8,1.4 0.4,0.1 0.8,0.2 1.1,0.3 -0.3,-0.8 -0.6,-1.6 -1,-2.4 -2.2,-5 -4.8,-9.9 -7.7,-14.6 -3.8,-6.2 -8.1,-12.1 -13,-17.5 -9.3,-10.3 -20,-18.8 -32.2,-25.4 -1.1,-0.6 -2.2,-1.2 -3.3,-1.7 -2.2,4.3 -4.3,8.5 -6.5,12.9 17.9,9 32.2,22 42.7,38.9 z"
   inkscape:connector-curvature="0"
   style="fill:#005154" />
			<path
   id="XMLID_280_"
   class="st1"
   d="m 590.2,188.7 c -0.6,0.7 -1.3,1.4 -1.9,2 -3.8,3.8 -7.9,6.6 -11.8,9.5 0,0.1 0,-0.2 0,-0.2 0.4,0 0.7,0 1,0 4.1,0 7.8,0.5 11.9,0.5 0.3,0 0.6,0.5 0.6,0.5 0,-2.1 0,-4.3 0,-6.4 0,-1.4 0.1,-2.8 0,-4.1 -0.1,-0.6 0.2,-1.2 0.2,-1.8 z"
   inkscape:connector-curvature="0"
   style="fill:#005154" />
		</g>
		<path
   id="XMLID_262_"
   class="st1"
   d="m 522.8,124.5 c 12,8.2 21.3,18.3 28.1,30.1 1.8,-0.2 3.7,-0.4 5.5,-0.6 -1.1,-2.1 -2.3,-4.1 -3.6,-6 -4.3,-6.7 -9.4,-12.7 -15.2,-18.2 -5.8,-5.4 -12.1,-10.1 -19,-14 -4.6,-2.6 -9.3,-4.8 -14.2,-6.6 -4.2,-1.6 -8.5,-2.7 -12.8,-3.8 -2,-0.5 -4,-0.8 -6,-1.1 -4.1,-0.5 -8.1,-1 -12.2,-1.2 -7.1,-0.3 -14.1,0.2 -21,1.7 -4.2,0.9 -8.4,1.8 -12.5,3.2 -4.1,1.4 -8.2,3.1 -12.1,4.9 -5.6,2.6 -10.9,5.9 -15.8,9.6 -7.6,5.7 -14.2,12.3 -19.9,19.9 -0.9,1.2 -1.8,2.5 -2.7,3.7 1.4,1 2.8,1.9 4.2,2.9 14.7,-20.9 34.4,-34.4 59.6,-39.1 25,-4.7 48.5,0.1 69.6,14.6 z"
   inkscape:connector-curvature="0"
   style="fill:#005154" />
		<g
   id="XMLID_259_">
			<path
   id="XMLID_261_"
   class="st1"
   d="m 551.8,174.1 c 0.9,2.7 1.6,5.5 2.2,8.3 0.1,-0.2 0.3,-0.3 0.4,-0.5 0.9,-1.3 1.7,-2.6 2.3,-3.9 0.5,-1.2 0.8,-2.4 -1.1,-4.5 -1,-1.1 -2.4,-1.8 -4.8,-2.3 0.4,1 0.7,2 1,2.9 z"
   inkscape:connector-curvature="0"
   style="fill:#005154" />
			<path
   id="XMLID_260_"
   class="st1"
   d="m 482.7,116.3 c 3,0.4 5.9,0.9 8.8,1.7 3.9,1.1 7.7,2.3 11.5,3.7 5.4,2.1 10.5,4.9 15.3,8.2 6.6,4.4 12.4,9.6 17.6,15.7 2.7,3.2 5.1,6.5 7.3,10.1 0.8,-0.1 1.5,-0.2 2.3,-0.3 1.1,-0.1 2.2,-0.3 3.3,-0.4 -4.7,-7.9 -10.2,-15.2 -17.6,-21.7 -16.9,-15.1 -38.2,-22.5 -59.2,-23 0,1.8 0,3.4 0,5.1 0,0 0.2,0.1 0.5,0.1 3.5,0.2 6.6,0.4 10.2,0.8 z"
   inkscape:connector-curvature="0"
   style="fill:#005154" />
		</g>
		<g
   id="XMLID_255_">
			<path
   id="XMLID_258_"
   class="st1"
   d="m 390.1,217.1 c -3.7,3.4 -6,6.2 -7.4,9.2 -0.8,1.7 -0.8,2.7 -0.8,3.3 0.1,0.6 0.1,1 1.7,1.7 2.1,0.8 4.5,1.2 7.9,1.3 0.7,0 1.4,0 2.1,0 0.4,0 0.9,0 1.3,0 -2.1,-5.1 -3.7,-10.3 -4.8,-15.5 z"
   inkscape:connector-curvature="0"
   style="fill:#005154" />
			<path
   id="XMLID_257_"
   class="st1"
   d="m 384.2,203 c 1.5,-0.9 2.9,-1.9 4.4,-2.8 0.2,-11.3 2.9,-22.9 8,-34.7 -0.1,-0.1 -0.4,-0.3 -0.7,-0.4 -3.3,-1.6 -6.6,-3.1 -9.8,-4.8 -0.6,-0.3 -0.9,-0.2 -1.2,0.4 -0.9,2 -1.8,4 -2.6,6.1 -1.2,3.3 -2.2,6.6 -3.2,9.9 -0.7,2.4 -1.3,4.9 -1.7,7.3 -0.6,3.8 -1,7.6 -1.3,11.4 -0.4,4.3 -0.3,8.6 0.1,12.9 2.5,-1.8 5.3,-3.6 8,-5.3 z"
   inkscape:connector-curvature="0"
   style="fill:#005154" />
			<path
   id="XMLID_256_"
   class="st1"
   d="m 494.7,281.8 c -0.2,-0.8 -0.5,-1.6 -0.8,-2.4 -16.9,4.7 -33.6,4.6 -50.1,-1.1 -14,-4.8 -25.9,-12.7 -35.2,-23.7 -4.8,1.2 -9.5,2.2 -14,3.1 1.2,1.6 2.4,3.1 3.7,4.6 6.1,7.1 13.1,13.2 20.9,18.3 5.3,3.4 10.9,6.3 16.9,8.6 4.1,1.6 8.3,2.9 12.5,3.9 4.2,1 8.5,1.7 12.8,2.1 8,0.7 16.1,0.6 24,-0.8 3.7,-0.6 7.4,-1.6 11.1,-2.4 0.7,-0.2 1,-0.5 0.7,-1.2 -0.7,-3 -1.6,-6 -2.5,-9 z"
   inkscape:connector-curvature="0"
   style="fill:#005154" />
		</g>
		<g
   id="XMLID_252_">
			<path
   id="XMLID_254_"
   class="st1"
   d="m 368.7,213.4 c -0.1,-0.9 -0.2,-1.8 -0.3,-2.7 -0.1,-0.5 -0.2,-0.7 -0.7,-0.7 -1.1,0.1 -2.2,0.2 -3.3,0.3 -1.9,0.2 -3.7,0.4 -5.7,0.5 0.2,3.1 0.6,6.4 1.2,9.9 2.7,-2.4 5.6,-4.9 8.8,-7.3 z"
   inkscape:connector-curvature="0"
   style="fill:#005154" />
			<path
   id="XMLID_253_"
   class="st1"
   d="m 469.9,303.5 c -3.9,-0.2 -7.7,-0.2 -11.5,-0.7 -4.5,-0.6 -8.9,-1.4 -13.3,-2.4 -4.6,-1.1 -9.2,-2.6 -13.6,-4.5 -5.5,-2.3 -10.7,-5 -15.7,-8.1 -8.4,-5.3 -15.9,-11.7 -22.4,-19.1 -2.7,-3 -5.1,-6.2 -7.4,-9.4 -4.1,0.6 -7.7,0.9 -11.1,1 5.4,8.7 12.4,17.3 21.5,25.2 21.3,18.5 46.2,27.6 74.4,27.9 0,-0.4 0,-0.7 0,-0.9 0,-2.7 0,-5.4 0,-8 0,-0.8 -0.2,-1 -0.9,-1 z"
   inkscape:connector-curvature="0"
   style="fill:#005154" />
		</g>
		<path
   id="XMLID_251_"
   class="st1"
   d="m 499.7,318.4 c -0.3,-1.2 -0.7,-2.4 -1,-3.7 -1.5,0.3 -2.8,0.7 -4.2,1 -3.3,0.6 -6.7,1.2 -10,1.6 -3.8,0.4 -7.6,0.8 -11.4,0.9 -6.4,0.2 -12.8,-0.2 -19.1,-1.2 -3.3,-0.5 -6.7,-1.1 -10,-1.8 -2.8,-0.6 -5.6,-1.4 -8.3,-2.3 -4.2,-1.4 -8.4,-2.9 -12.4,-4.6 -4.8,-2 -9.3,-4.5 -13.7,-7.2 -5.8,-3.6 -11.3,-7.6 -16.4,-12.1 -5.7,-5 -10.9,-10.6 -15.5,-16.6 -2.9,-3.8 -5.6,-7.7 -8,-11.8 0,0 0,0 -0.1,0 -2.4,0 -5,-0.2 -7.8,-0.6 1.4,2.6 2.9,5.2 4.6,7.6 2.8,4 5.6,8.1 8.7,11.9 3.1,3.8 6.6,7.3 10,10.8 3.4,3.5 7.3,6.6 11.2,9.6 3.9,3 8.1,5.7 12.3,8.2 4.3,2.5 8.6,4.8 13.2,6.6 4.6,1.8 9.2,3.6 13.9,5 4.7,1.4 9.6,2.3 14.4,3.2 3.6,0.6 7.2,1.3 10.9,1.3 h 19.1 c 2,0 3.9,-0.3 5.9,-0.5 2.6,-0.3 5.1,-0.6 7.7,-1.1 2.1,-0.4 4.1,-0.9 6.2,-1.3 0.7,-0.1 0.8,-0.4 0.6,-1 -0.5,-0.7 -0.6,-1.3 -0.8,-1.9 z"
   inkscape:connector-curvature="0"
   style="fill:#005154" />
		<g
   id="XMLID_248_">
			<path
   id="XMLID_250_"
   class="st0"
   d="m 538.2,163.3 c 1.3,-0.2 2.6,-0.5 3.9,-0.7 5.3,-0.7 10.5,-1.5 15.8,-2 7.1,-0.6 14.2,-0.7 21.3,0.8 2.5,0.6 5,1.4 7.2,2.8 4.7,3.1 6,7.6 3.6,12.7 -1.6,3.4 -4,6.2 -6.6,8.8 -5.8,5.9 -12.5,10.6 -19.5,15.1 -14.5,9.2 -29.9,16.7 -45.7,23.3 -15.1,6.4 -30.6,11.8 -46.3,16.5 -11.2,3.3 -22.6,6.3 -34.1,8.4 -7.1,1.3 -14.3,2.2 -21.5,3.3 -0.4,0.1 -0.8,0.1 -1.3,0 1.5,-0.3 3.1,-0.7 4.6,-1 16.1,-3.4 31.9,-7.9 47.5,-13.3 18.8,-6.5 37.1,-14.2 54.6,-23.7 9.8,-5.3 19.2,-11 27.8,-18.1 3.8,-3.1 7.4,-6.4 10.3,-10.5 1.1,-1.6 2.1,-3.3 2.9,-5.1 2,-4.4 0.9,-8.4 -2.3,-11.8 -2.5,-2.7 -5.7,-3.8 -9.2,-4.6 -4.3,-0.9 -8.6,-1 -12.9,-0.9 -0.1,0 -0.2,0 -0.3,0 0.3,0.2 0.2,0.1 0.2,0 z"
   inkscape:connector-curvature="0"
   style="fill:#c1272d" />
			<path
   id="XMLID_249_"
   class="st0"
   d="m 393.5,205.2 c -2.6,2.2 -5.2,4.3 -7.7,6.6 -3.7,3.4 -7,7 -9.2,11.6 -1,2.2 -1.6,4.5 -1.4,7 0.4,3.7 2.6,5.9 5.9,7.2 3.3,1.3 6.7,1.7 10.2,1.8 6.8,0.2 13.5,-0.6 20.2,-1.8 19.3,-3.5 37.9,-9.7 56,-17.1 15.6,-6.4 30.6,-13.7 45.1,-22.4 4.2,-2.6 8.4,-5.2 12.5,-8 3.4,-2.3 6.7,-4.7 9.9,-7.3 3.1,-2.5 6,-5.4 9,-8.1 0.2,-0.2 0.4,-0.4 0.8,-0.5 -0.8,1 -1.5,2.1 -2.3,3.1 -1.8,2 -3.7,4.1 -5.6,6 -4.7,4.5 -9.8,8.4 -15.1,12.2 -18.3,13 -38.1,23.2 -58.5,32.3 -15,6.7 -30.3,12.5 -46.1,17.2 -9.1,2.8 -18.4,5.1 -27.7,6.8 -6.6,1.2 -13.2,2 -19.9,1.9 -3.8,-0.1 -7.6,-0.4 -11.2,-1.8 -2.7,-1.1 -4.9,-2.8 -5.5,-5.9 -0.5,-2.2 0,-4.2 0.8,-6.2 1.4,-3.7 3.8,-6.7 6.4,-9.6 4.9,-5.4 10.5,-10 16.5,-14.2 5.3,-3.7 10.8,-7.1 16.3,-10.6 0.1,0 0.3,-0.1 0.6,-0.2 0,0 0,0 0,0 z"
   inkscape:connector-curvature="0"
   style="fill:#c1272d" />
		</g>
		<path
   id="XMLID_235_"
   class="st0"
   d="m 418,211.4 c 2.7,0 5.3,0.1 8,0 6.5,-0.4 13,-0.9 19.5,-1.6 7.6,-0.9 15.2,-2.4 22.6,-4.2 25.8,-6.3 49.4,-17.2 70.8,-32.9 0.1,-0.1 0.1,-0.1 0.2,-0.2 -11.3,-26.5 -37.6,-45.1 -68.2,-45.1 -40.9,0 -74.1,33.2 -74.1,74.1 0,3 0.2,6 0.6,8.9 6.8,0.8 13.7,1.1 20.6,1 z"
   inkscape:connector-curvature="0"
   style="fill:#c1272d" />
		<path
   id="XMLID_233_"
   class="st0"
   d="m 422.3,257.5 c 13,11.3 30,18.2 48.6,18.2 32.6,0 60.2,-21 70.2,-50.2 -35.6,25.7 -75.2,36.2 -118.8,32 z"
   inkscape:connector-curvature="0"
   style="fill:#c1272d" />
		<g
   id="XMLID_227_">
			<path
   id="XMLID_230_"
   class="st1"
   d="m 583,227.4 c -7.8,32.8 -29.5,60.4 -58.9,75.9 1.2,1 2,2.4 2.2,4 30.5,-16.1 53.1,-44.9 61.2,-79 -0.3,0.1 -0.6,0.1 -0.9,0.1 -1.3,0.1 -2.6,-0.3 -3.6,-1 z"
   inkscape:connector-curvature="0"
   style="fill:#005154" />
			<circle
   id="XMLID_229_"
   class="st1"
   cx="586.29999"
   cy="222.39999"
   r="6.0999999"
   style="fill:#005154" />
			<circle
   id="XMLID_228_"
   class="st1"
   cx="520.29999"
   cy="308"
   r="6.0999999"
   style="fill:#005154" />
		</g>
		<g
   id="XMLID_126_">
			<path
   id="XMLID_225_"
   class="st1"
   d="m 363.5,202.1 0.1,-2.6 -9.6,-0.4 0.6,2.5 -2,-0.1 -1.3,-4.8 12.4,0.5 0.1,-2.5 1.9,0.1 -0.3,7.3 z"
   inkscape:connector-curvature="0"
   style="fill:#005154" />
			<path
   id="XMLID_189_"
   class="st1"
   d="m 365.3,183.4 0.5,-2.5 -9.4,-2 0.2,2.6 -2,-0.4 -0.5,-4.9 12.2,2.6 0.5,-2.4 1.9,0.4 -1.6,7.2 z"
   inkscape:connector-curvature="0"
   style="fill:#005154" />
			<path
   id="XMLID_186_"
   class="st1"
   d="m 364.3,162.4 c -7.6,-3.3 -2.8,-14.3 4.8,-11 l 2.3,1 c 7.6,3.3 2.8,14.3 -4.8,11 z m 3.2,-1.1 c 5,2.2 8,-4.6 3,-6.8 l -2.3,-1 c -4.9,-2.2 -7.9,4.6 -3,6.8 z"
   inkscape:connector-curvature="0"
   style="fill:#005154" />
			<path
   id="XMLID_182_"
   class="st1"
   d="m 376,139.6 c -6.7,-4.9 0.5,-14.6 7.1,-9.6 l 2,1.5 c 6.7,4.9 -0.4,14.6 -7.1,9.6 z m 3.3,-0.4 c 4.4,3.2 8.8,-2.7 4.4,-6 l -2,-1.5 c -4.3,-3.2 -8.8,2.7 -4.4,6 z"
   inkscape:connector-curvature="0"
   style="fill:#005154" />
			<path
   id="XMLID_179_"
   class="st1"
   d="m 392.4,119.9 c -5.4,-6.3 3.7,-14.1 9.1,-7.8 l 1.6,1.9 c 5.4,6.3 -3.6,14.1 -9.1,7.8 z m 3.4,0.4 c 3.6,4.1 9.2,-0.7 5.6,-4.8 l -1.6,-1.9 c -3.5,-4.1 -9.2,0.7 -5.6,4.8 z"
   inkscape:connector-curvature="0"
   style="fill:#005154" />
			<path
   id="XMLID_177_"
   class="st1"
   d="m 415.8,110.2 2.2,-1.3 -4.7,-8.4 -1.8,1.8 -1,-1.7 3.4,-3.6 6.1,10.8 2.2,-1.2 0.9,1.7 -6.4,3.6 z"
   inkscape:connector-curvature="0"
   style="fill:#005154" />
			<path
   id="XMLID_174_"
   class="st1"
   d="m 430.7,95.5 c -2.6,-7.9 8.8,-11.6 11.4,-3.7 l 0.8,2.4 c 2.6,7.9 -8.8,11.6 -11.4,3.7 z m 3,1.7 c 1.7,5.2 8.7,2.9 7,-2.3 l -0.8,-2.4 c -1.7,-5.1 -8.7,-2.9 -7,2.3 z"
   inkscape:connector-curvature="0"
   style="fill:#005154" />
			<path
   id="XMLID_171_"
   class="st1"
   d="m 455.5,89 c -0.8,-8.3 11.2,-9.4 11.9,-1.1 l 0.2,2.5 c 0.8,8.3 -11.2,9.4 -11.9,1.1 z m 2.6,2.3 c 0.5,5.4 7.9,4.7 7.4,-0.7 l -0.2,-2.5 c -0.5,-5.3 -7.9,-4.7 -7.4,0.7 z"
   inkscape:connector-curvature="0"
   style="fill:#005154" />
			<path
   id="XMLID_169_"
   class="st1"
   d="m 480.2,94.7 2.6,0.3 1,-9.6 -2.5,0.4 0.2,-2 4.9,-1 -1.3,12.4 2.5,0.3 -0.2,1.9 -7.3,-0.8 z"
   inkscape:connector-curvature="0"
   style="fill:#005154" />
			<path
   id="XMLID_165_"
   class="st1"
   d="m 500.9,91.3 c 2.5,-7.9 13.9,-4.4 11.4,3.6 l -0.7,2.4 c -2.5,7.9 -13.9,4.4 -11.4,-3.6 z m 1.4,3.1 c -1.6,5.2 5.5,7.4 7.1,2.2 l 0.7,-2.4 c 1.6,-5.1 -5.5,-7.4 -7.1,-2.2 z"
   inkscape:connector-curvature="0"
   style="fill:#005154" />
		</g>
	</g>
</g>
</svg>